Coordinates
version=1
nRows=64
nColumns=10
inDegrees=yes

Units are S.I. units (second, meters, Newtons, ...)
If the header above contains a line with 'inDegrees', this indicates whether rotational values are in degrees (yes) or radians (no).

endheader
time	boatJoint_coord_0	boatJoint_coord_1	boatJoint_coord_2	boatJoint_coord_3	boatJoint_coord_4	boatJoint_coord_5	baseangle	kneeangle	bladeangle
      9.00000000	      0.00000000	      0.00000000	      0.00000000	      0.00000000	      0.00000000	      0.00000000	    -29.05495294	     -5.42397127	     34.47901061
      9.02000000	      0.00000000	      0.00000000	      0.00000000	      0.00000000	      0.00000000	      0.00000000	    -28.78697983	     -5.79681225	     34.58385104
      9.04000000	      0.00000000	      0.00000000	      0.00000000	      0.00000000	      0.00000000	      0.00000000	    -28.51679964	     -6.17195995	     34.68881559
      9.06000000	      0.00000000	      0.00000000	      0.00000000	      0.00000000	      0.00000000	      0.00000000	    -28.24913574	     -6.54284619	     34.79201378
      9.08000000	      0.00000000	      0.00000000	      0.00000000	      0.00000000	      0.00000000	      0.00000000	    -27.98160830	     -6.91277979	     34.89440860
      9.10000000	      0.00000000	      0.00000000	      0.00000000	      0.00000000	      0.00000000	      0.00000000	    -27.71185179	     -7.28503914	     34.99700515
      9.12000000	      0.00000000	      0.00000000	      0.00000000	      0.00000000	      0.00000000	      0.00000000	    -27.44454752	     -7.65309446	     35.09765495
      9.14000000	      0.00000000	      0.00000000	      0.00000000	      0.00000000	      0.00000000	      0.00000000	    -27.17498813	     -8.02348519	     35.19846972
      9.16000000	      0.00000000	      0.00000000	      0.00000000	      0.00000000	      0.00000000	      0.00000000	    -26.90787843	     -8.38972160	     35.29756627
      9.18000000	      0.00000000	      0.00000000	      0.00000000	      0.00000000	      0.00000000	      0.00000000	    -26.64084816	     -8.75507166	     35.39589742
      9.20000000	      0.00000000	      0.00000000	      0.00000000	      0.00000000	      0.00000000	      0.00000000	    -26.37151890	     -9.12276791	     35.49428412
      9.22000000	      0.00000000	      0.00000000	      0.00000000	      0.00000000	      0.00000000	      0.00000000	    -26.10461218	     -9.48637570	     35.59108280
      9.24000000	      0.00000000	      0.00000000	      0.00000000	      0.00000000	      0.00000000	      0.00000000	    -25.83536046	     -9.85232896	     35.68771405
      9.26000000	      0.00000000	      0.00000000	      0.00000000	      0.00000000	      0.00000000	      0.00000000	    -25.56850978	    -10.21423316	     35.78279858
      9.28000000	      0.00000000	      0.00000000	      0.00000000	      0.00000000	      0.00000000	      0.00000000	    -25.30167378	    -10.57530949	     35.87707258
      9.30000000	      0.00000000	      0.00000000	      0.00000000	      0.00000000	      0.00000000	      0.00000000	    -25.03247824	    -10.93875374	     35.97134884
      9.32000000	      0.00000000	      0.00000000	      0.00000000	      0.00000000	      0.00000000	      0.00000000	    -24.76563786	    -11.29820214	     36.06401629
      9.34000000	      0.00000000	      0.00000000	      0.00000000	      0.00000000	      0.00000000	      0.00000000	    -24.49641198	    -11.66002656	     36.15665138
      9.36000000	      0.00000000	      0.00000000	      0.00000000	      0.00000000	      0.00000000	      0.00000000	    -24.22951716	    -12.01789191	     36.24768542
      9.38000000	      0.00000000	      0.00000000	      0.00000000	      0.00000000	      0.00000000	      0.00000000	    -23.96254380	    -12.37497462	     36.33753563
      9.40000000	      0.00000000	      0.00000000	      0.00000000	      0.00000000	      0.00000000	      0.00000000	    -23.69317695	    -12.73445464	     36.42765072
      9.42000000	      0.00000000	      0.00000000	      0.00000000	      0.00000000	      0.00000000	      0.00000000	    -23.42610393	    -13.09002752	     36.51615625
      9.44000000	      0.00000000	      0.00000000	      0.00000000	      0.00000000	      0.00000000	      0.00000000	    -23.15658517	    -13.44799743	     36.60461110
      9.46000000	      0.00000000	      0.00000000	      0.00000000	      0.00000000	      0.00000000	      0.00000000	    -22.88933745	    -13.80209460	     36.69146652
      9.48000000	      0.00000000	      0.00000000	      0.00000000	      0.00000000	      0.00000000	      0.00000000	    -22.62198472	    -14.15547268	     36.77749689
      9.50000000	      0.00000000	      0.00000000	      0.00000000	      0.00000000	      0.00000000	      0.00000000	    -22.35214750	    -14.51125967	     36.86345081
      9.52000000	      0.00000000	      0.00000000	      0.00000000	      0.00000000	      0.00000000	      0.00000000	    -22.08454795	    -14.86322377	     36.94782147
      9.54000000	      0.00000000	      0.00000000	      0.00000000	      0.00000000	      0.00000000	      0.00000000	    -21.81443723	    -15.21760458	     37.03209597
      9.56000000	      0.00000000	      0.00000000	      0.00000000	      0.00000000	      0.00000000	      0.00000000	    -21.54654229	    -15.56819480	     37.11479735
      9.58000000	      0.00000000	      0.00000000	      0.00000000	      0.00000000	      0.00000000	      0.00000000	    -21.27848208	    -15.91811576	     37.19666343
      9.60000000	      0.00000000	      0.00000000	      0.00000000	      0.00000000	      0.00000000	      0.00000000	    -21.00786986	    -16.27046497	     37.27840516
      9.62000000	      0.00000000	      0.00000000	      0.00000000	      0.00000000	      0.00000000	      0.00000000	    -20.73944114	    -16.61907050	     37.35858805
      9.64000000	      0.00000000	      0.00000000	      0.00000000	      0.00000000	      0.00000000	      0.00000000	    -20.46843226	    -16.97011191	     37.43862550
      9.66000000	      0.00000000	      0.00000000	      0.00000000	      0.00000000	      0.00000000	      0.00000000	    -20.19958561	    -17.31744006	     37.51711298
      9.68000000	      0.00000000	      0.00000000	      0.00000000	      0.00000000	      0.00000000	      0.00000000	    -19.93051233	    -17.66414627	     37.59475131
      9.70000000	      0.00000000	      0.00000000	      0.00000000	      0.00000000	      0.00000000	      0.00000000	    -19.65881564	    -18.01329976	     37.67221311
      9.72000000	      0.00000000	      0.00000000	      0.00000000	      0.00000000	      0.00000000	      0.00000000	    -19.38924966	    -18.35878426	     37.74813720
      9.74000000	      0.00000000	      0.00000000	      0.00000000	      0.00000000	      0.00000000	      0.00000000	    -19.11703043	    -18.70672360	     37.82386217
      9.76000000	      0.00000000	      0.00000000	      0.00000000	      0.00000000	      0.00000000	      0.00000000	    -18.84692108	    -19.05102269	     37.89805689
      9.78000000	      0.00000000	      0.00000000	      0.00000000	      0.00000000	      0.00000000	      0.00000000	    -18.57652215	    -19.39474501	     37.97138472
      9.80000000	      0.00000000	      0.00000000	      0.00000000	      0.00000000	      0.00000000	      0.00000000	    -18.30342390	    -19.74093359	     38.04447914
      9.82000000	      0.00000000	      0.00000000	      0.00000000	      0.00000000	      0.00000000	      0.00000000	    -18.03240454	    -20.08352380	     38.11605339
      9.84000000	      0.00000000	      0.00000000	      0.00000000	      0.00000000	      0.00000000	      0.00000000	    -17.75865409	    -20.42858787	     38.18737009
      9.86000000	      0.00000000	      0.00000000	      0.00000000	      0.00000000	      0.00000000	      0.00000000	    -17.48696192	    -20.77008082	     38.25717259
      9.88000000	      0.00000000	      0.00000000	      0.00000000	      0.00000000	      0.00000000	      0.00000000	    -17.21491511	    -21.11104035	     38.32608637
      9.90000000	      0.00000000	      0.00000000	      0.00000000	      0.00000000	      0.00000000	      0.00000000	    -16.94008798	    -21.45448531	     38.39470487
      9.92000000	      0.00000000	      0.00000000	      0.00000000	      0.00000000	      0.00000000	      0.00000000	    -16.66728838	    -21.79439887	     38.46181707
      9.94000000	      0.00000000	      0.00000000	      0.00000000	      0.00000000	      0.00000000	      0.00000000	    -16.39167454	    -22.13680563	     38.52860859
      9.96000000	      0.00000000	      0.00000000	      0.00000000	      0.00000000	      0.00000000	      0.00000000	    -16.11806773	    -22.47570688	     38.59389860
      9.98000000	      0.00000000	      0.00000000	      0.00000000	      0.00000000	      0.00000000	      0.00000000	    -15.84403862	    -22.81411662	     38.65827466
     10.00000000	      0.00000000	      0.00000000	      0.00000000	      0.00000000	      0.00000000	      0.00000000	    -15.56714253	    -23.15503142	     38.72228918
     10.02000000	      0.00000000	      0.00000000	      0.00000000	      0.00000000	      0.00000000	      0.00000000	    -15.29222280	    -23.49247857	     38.78480927
     10.04000000	      0.00000000	      0.00000000	      0.00000000	      0.00000000	      0.00000000	      0.00000000	    -15.01439983	    -23.83243885	     38.84694178
     10.06000000	      0.00000000	      0.00000000	      0.00000000	      0.00000000	      0.00000000	      0.00000000	    -14.73853273	    -24.16895618	     38.90758463
     10.08000000	      0.00000000	      0.00000000	      0.00000000	      0.00000000	      0.00000000	      0.00000000	    -14.46217265	    -24.50502278	     38.96728587
     10.10000000	      0.00000000	      0.00000000	      0.00000000	      0.00000000	      0.00000000	      0.00000000	    -14.18285257	    -24.84361483	     39.02655485
     10.12000000	      0.00000000	      0.00000000	      0.00000000	      0.00000000	      0.00000000	      0.00000000	    -13.90545754	    -25.17880015	     39.08434050
     10.14000000	      0.00000000	      0.00000000	      0.00000000	      0.00000000	      0.00000000	      0.00000000	    -13.62506332	    -25.51651932	     39.14166435
     10.16000000	      0.00000000	      0.00000000	      0.00000000	      0.00000000	      0.00000000	      0.00000000	    -13.34657332	    -25.85085542	     39.19750765
     10.18000000	      0.00000000	      0.00000000	      0.00000000	      0.00000000	      0.00000000	      0.00000000	    -13.06751542	    -26.18478066	     39.25237341
     10.20000000	      0.00000000	      0.00000000	      0.00000000	      0.00000000	      0.00000000	      0.00000000	    -12.78539668	    -26.52125263	     39.30672505
     10.22000000	      0.00000000	      0.00000000	      0.00000000	      0.00000000	      0.00000000	      0.00000000	    -12.50515048	    -26.85437624	     39.35959799
     10.24000000	      0.00000000	      0.00000000	      0.00000000	      0.00000000	      0.00000000	      0.00000000	    -12.22180083	    -27.19005544	     39.41192229
     10.26000000	      0.00000000	      0.00000000	      0.00000000	      0.00000000	      0.00000000	      0.00000000	    -11.94030239	    -27.52240905	     39.46276945
